<svg width="806" height="554" viewBox="0 0 806 554" fill="none" xmlns="http://www.w3.org/2000/svg">
<g clip-path="url(#clip0_272_7305)">
<path d="M417.399 32.9023H139.133L0 291.582L139.133 550.261H417.399L556.532 291.582L417.399 32.9023Z" fill="#D9EBFF"/>
<path d="M674.938 0H552.512L491.301 113.808L552.512 227.616H674.938L736.149 113.808L674.938 0Z" fill="#D9EBFF"/>
<path d="M670.722 342.338H589.541L548.953 417.806L589.541 493.27H670.722L711.312 417.806L670.722 342.338Z" fill="#D9EBFF"/>
<path d="M345.873 496.41H321.602C317.077 496.403 312.74 494.472 309.54 491.037C306.341 487.604 304.541 482.948 304.536 478.09V410.009C304.532 406.05 303.064 402.255 300.458 399.455C297.849 396.655 294.314 395.081 290.625 395.076H190.535C186.011 395.071 181.673 393.139 178.474 389.705C175.274 386.272 173.475 381.614 173.469 376.758V186.999C173.475 182.143 175.274 177.487 178.474 174.052C181.673 170.619 186.011 168.686 190.535 168.681H279C282.688 168.676 286.224 167.102 288.831 164.302C291.439 161.503 292.906 157.708 292.911 153.749V147.177C292.916 142.32 294.715 137.664 297.914 134.229C301.113 130.795 305.451 128.863 309.976 128.858H504.945C508.634 128.853 512.169 127.279 514.776 124.479C517.384 121.68 518.852 117.885 518.855 113.926C518.86 109.069 520.661 104.413 523.86 100.979C527.059 97.5445 531.397 95.6129 535.92 95.6074H625.891C630.416 95.6129 634.754 97.5447 637.953 100.979C641.152 104.413 642.953 109.069 642.958 113.926V380.126C642.958 380.575 642.791 381.006 642.496 381.323C642.2 381.641 641.798 381.819 641.381 381.819C640.962 381.819 640.56 381.641 640.264 381.323C639.969 381.006 639.802 380.575 639.802 380.126V113.926C639.798 109.967 638.33 106.172 635.724 103.373C633.115 100.574 629.58 98.999 625.891 98.9946H535.92C532.233 98.999 528.698 100.574 526.09 103.373C523.483 106.172 522.015 109.967 522.012 113.926C522.007 118.783 520.206 123.439 517.007 126.874C513.808 130.308 509.47 132.239 504.945 132.245H309.976C306.288 132.25 302.753 133.824 300.145 136.623C297.536 139.423 296.07 143.218 296.065 147.177V153.749C296.06 158.606 294.261 163.262 291.062 166.697C287.863 170.13 283.525 172.063 279 172.068H190.535C186.848 172.072 183.311 173.647 180.705 176.447C178.096 179.246 176.63 183.041 176.625 186.999V376.758C176.63 380.716 178.096 384.513 180.705 387.311C183.311 390.111 186.848 391.685 190.535 391.69H290.625C295.15 391.694 299.488 393.627 302.687 397.061C305.886 400.496 307.687 405.151 307.692 410.009V478.09C307.695 482.049 309.163 485.845 311.77 488.644C314.378 491.442 317.913 493.017 321.602 493.022H345.873C346.292 493.022 346.693 493.2 346.989 493.518C347.285 493.835 347.451 494.266 347.451 494.715C347.451 495.166 347.285 495.596 346.989 495.914C346.693 496.231 346.292 496.41 345.873 496.41Z" fill="#A9C0FF"/>
<path d="M422.578 194.416C454.234 194.416 479.897 166.869 479.897 132.887C479.897 98.9063 454.234 71.3594 422.578 71.3594C390.921 71.3594 365.258 98.9063 365.258 132.887C365.258 166.869 390.921 194.416 422.578 194.416Z" fill="white"/>
<path d="M390.264 435.023L369.227 543.55H451.017L429.981 435.023H390.264ZM422.576 480.423C422.576 484.214 421.173 487.851 418.676 490.531C416.178 493.212 412.79 494.718 409.26 494.718C405.728 494.718 402.34 493.212 399.843 490.531C397.346 487.851 395.944 484.214 395.944 480.423V466.129H422.576V480.423Z" fill="#4D76B8"/>
<path d="M422.573 480.419V466.126H395.94V480.419C395.94 480.759 395.962 481.086 395.982 481.413C396.003 481.74 396.046 482.069 396.088 482.385H381.078L390.26 435.02H429.978L439.16 482.385H422.436C422.479 482.069 422.51 481.74 422.53 481.413C422.561 481.083 422.575 480.751 422.573 480.419Z" fill="#4469A0"/>
<path d="M581.556 208.66H238.692C229.397 208.66 221.863 216.748 221.863 226.726V448.065C221.863 458.043 229.397 466.131 238.692 466.131H581.556C590.851 466.131 598.384 458.043 598.384 448.065V226.726C598.384 216.748 590.851 208.66 581.556 208.66Z" fill="#4D76B8"/>
<path d="M574.442 225.625H245.805C241.738 225.625 238.441 229.163 238.441 233.528V441.261C238.441 445.626 241.738 449.164 245.805 449.164H574.442C578.509 449.164 581.806 445.626 581.806 441.261V233.528C581.806 229.163 578.509 225.625 574.442 225.625Z" fill="white"/>
<path d="M575.78 225.625H244.467C242.87 225.625 241.336 226.306 240.207 227.519C239.077 228.731 238.441 230.378 238.441 232.093V242.923H581.806V232.093C581.806 230.378 581.17 228.731 580.041 227.519C578.911 226.306 577.378 225.625 575.78 225.625Z" fill="#A9C0FF"/>
<g opacity="0.28">
<path d="M275.115 128.416H151.25C148.927 128.416 147.043 130.438 147.043 132.932V317.921C147.043 320.414 148.927 322.436 151.25 322.436H275.115C277.438 322.436 279.323 320.414 279.323 317.921V132.932C279.323 130.438 277.438 128.416 275.115 128.416Z" fill="#6299E8"/>
</g>
<path d="M260.569 111.648H136.704C134.38 111.648 132.496 113.67 132.496 116.165V301.153C132.496 303.647 134.38 305.669 136.704 305.669H260.569C262.892 305.669 264.776 303.647 264.776 301.153V116.165C264.776 113.67 262.892 111.648 260.569 111.648Z" fill="white"/>
<path d="M214.033 279.723H160.012V283.111H214.033V279.723Z" fill="#4D76B8"/>
<path d="M245.59 265.498H160.012V268.885H245.59V265.498Z" fill="#4D76B8"/>
<path d="M214.033 247.613H160.012V251H214.033V247.613Z" fill="#4D76B8"/>
<path d="M245.59 233.387H160.012V236.775H245.59V233.387Z" fill="#4D76B8"/>
<path d="M245.59 219.16H160.012V222.547H245.59V219.16Z" fill="#4D76B8"/>
<path d="M260.567 307.363H136.703C135.169 307.362 133.699 306.706 132.614 305.543C131.53 304.379 130.92 302.8 130.918 301.153V116.165C130.92 114.519 131.53 112.94 132.614 111.776C133.699 110.612 135.169 109.957 136.703 109.955H260.567C262.102 109.957 263.573 110.612 264.657 111.776C265.741 112.94 266.352 114.519 266.353 116.165V301.153C266.352 302.8 265.741 304.379 264.657 305.543C263.573 306.706 262.102 307.362 260.567 307.363ZM136.703 113.342C136.006 113.343 135.338 113.641 134.845 114.17C134.351 114.699 134.074 115.417 134.073 116.165V301.153C134.074 301.901 134.351 302.62 134.844 303.149C135.337 303.678 136.006 303.975 136.703 303.977H260.567C261.266 303.975 261.934 303.678 262.428 303.149C262.919 302.62 263.197 301.901 263.197 301.153V116.165C263.197 115.417 262.919 114.699 262.426 114.17C261.934 113.641 261.266 113.343 260.567 113.342H136.703Z" fill="#4D76B8"/>
<path d="M150.253 273.456H143.837C143.139 273.456 142.471 273.157 141.978 272.628C141.485 272.099 141.208 271.383 141.207 270.633V263.745C141.208 262.997 141.485 262.281 141.978 261.752C142.471 261.221 143.139 260.924 143.837 260.924H150.253C150.95 260.924 151.618 261.221 152.111 261.752C152.604 262.281 152.881 262.997 152.882 263.745V270.633C152.881 271.383 152.604 272.099 152.111 272.628C151.618 273.157 150.95 273.456 150.253 273.456ZM144.363 270.07H149.727V264.31H144.363V270.07Z" fill="#4D76B8"/>
<path d="M150.253 227.12H143.837C143.139 227.12 142.471 226.821 141.978 226.292C141.485 225.763 141.208 225.047 141.207 224.297V217.41C141.208 216.661 141.485 215.945 141.978 215.414C142.471 214.885 143.139 214.588 143.837 214.588H150.253C150.95 214.588 151.618 214.885 152.111 215.414C152.604 215.945 152.881 216.661 152.882 217.41V224.297C152.881 225.047 152.604 225.763 152.111 226.292C151.618 226.821 150.95 227.12 150.253 227.12ZM144.363 223.734H149.727V217.974H144.363V223.734Z" fill="#4D76B8"/>
<path d="M143.696 131.682C143.488 131.682 143.285 131.616 143.112 131.492C142.939 131.368 142.804 131.191 142.724 130.985C142.645 130.779 142.624 130.552 142.665 130.333C142.705 130.114 142.805 129.913 142.952 129.755L149.647 122.569C149.844 122.357 150.111 122.238 150.39 122.238C150.669 122.238 150.937 122.357 151.134 122.569C151.331 122.781 151.442 123.068 151.442 123.367C151.442 123.667 151.331 123.954 151.134 124.166L144.44 131.351C144.342 131.456 144.226 131.54 144.099 131.596C143.971 131.653 143.834 131.682 143.696 131.682Z" fill="#4D76B8"/>
<path d="M150.39 131.682C150.252 131.682 150.115 131.653 149.988 131.596C149.86 131.54 149.744 131.456 149.647 131.351L142.953 124.166C142.755 123.954 142.645 123.667 142.645 123.367C142.645 123.068 142.755 122.781 142.953 122.569C143.15 122.357 143.417 122.238 143.696 122.238C143.975 122.238 144.243 122.357 144.44 122.569L151.134 129.755C151.281 129.913 151.381 130.114 151.422 130.333C151.462 130.552 151.442 130.779 151.362 130.985C151.282 131.191 151.148 131.368 150.975 131.492C150.802 131.616 150.598 131.682 150.39 131.682Z" fill="#4D76B8"/>
<path d="M238.271 142.33H159.003C157.26 142.33 155.848 143.847 155.848 145.717V195.035C155.848 196.905 157.26 198.422 159.003 198.422H238.271C240.013 198.422 241.425 196.905 241.425 195.035V145.717C241.425 143.847 240.013 142.33 238.271 142.33Z" fill="#A9C0FF"/>
<path d="M163.319 150.027L161.883 153.044L233.45 192.298L234.887 189.28L163.319 150.027Z" fill="#4D76B8"/>
<path d="M233.45 150.027L161.883 189.28L163.319 192.298L234.887 153.044L233.45 150.027Z" fill="#4D76B8"/>
<path d="M449.219 534.256H371.023L374.631 515.67H445.611L449.219 534.256Z" fill="#456BA3"/>
<path d="M469.95 543.55H350.293V530.606C350.293 529.108 350.847 527.673 351.834 526.614C352.819 525.556 354.157 524.961 355.553 524.961H464.692C466.086 524.961 467.424 525.556 468.411 526.614C469.396 527.673 469.95 529.108 469.95 530.606V543.55Z" fill="#4D76B8"/>
<path d="M51.2761 235.492C48.4974 235.55 45.7713 234.676 43.4776 232.991C41.6519 231.678 39.5033 230.977 37.3051 230.977C35.1071 230.977 32.9585 231.678 31.1329 232.991C28.8163 234.623 26.106 235.492 23.3353 235.492C20.5647 235.492 17.8544 234.623 15.538 232.991C13.7373 231.626 11.5748 230.919 9.37073 230.977C8.95228 230.977 8.55097 230.798 8.25509 230.481C7.9592 230.163 7.79297 229.731 7.79297 229.282C7.79297 228.833 7.9592 228.402 8.25509 228.085C8.55097 227.767 8.95228 227.589 9.37073 227.589C12.1488 227.531 14.8744 228.406 17.167 230.089C18.9919 231.404 21.1393 232.105 23.3365 232.105C25.5337 232.105 27.6811 231.404 29.5058 230.089C31.8232 228.457 34.5343 227.589 37.3058 227.589C40.0773 227.589 42.7884 228.459 45.1056 230.089C46.9076 231.456 49.0711 232.161 51.2761 232.105C51.6945 232.105 52.0958 232.284 52.3917 232.601C52.6876 232.919 52.8538 233.349 52.8538 233.798C52.8538 234.248 52.6876 234.678 52.3917 234.996C52.0958 235.313 51.6945 235.492 51.2761 235.492Z" fill="#A9C0FF"/>
<path d="M51.2761 246.875C48.4974 246.932 45.7713 246.058 43.4776 244.374C41.6519 243.059 39.5033 242.358 37.3051 242.358C35.1071 242.358 32.9585 243.059 31.1329 244.374C28.8163 246.006 26.106 246.875 23.3353 246.875C20.5647 246.875 17.8544 246.004 15.538 244.374C13.7373 243.008 11.5748 242.302 9.37073 242.358C8.95228 242.358 8.55097 242.18 8.25509 241.862C7.9592 241.544 7.79297 241.114 7.79297 240.665C7.79297 240.216 7.9592 239.785 8.25509 239.468C8.55097 239.15 8.95228 238.971 9.37073 238.971C12.1488 238.914 14.8744 239.787 17.167 241.472C18.9919 242.785 21.1393 243.488 23.3365 243.486C25.5337 243.486 27.6811 242.785 29.5058 241.472C31.8232 239.84 34.5343 238.971 37.3058 238.971C40.0773 238.971 42.7884 239.84 45.1056 241.472C46.9076 242.837 49.0711 243.544 51.2761 243.486C51.6945 243.486 52.0958 243.665 52.3917 243.982C52.6876 244.3 52.8538 244.732 52.8538 245.181C52.8538 245.63 52.6876 246.061 52.3917 246.378C52.0958 246.696 51.6945 246.875 51.2761 246.875Z" fill="#A9C0FF"/>
<path d="M51.2761 258.255C48.4974 258.313 45.7713 257.44 43.4776 255.755C41.6519 254.442 39.5033 253.739 37.3051 253.739C35.1071 253.739 32.9585 254.442 31.1329 255.755C28.8163 257.387 26.106 258.255 23.3353 258.255C20.5647 258.255 17.8544 257.387 15.538 255.755C13.7373 254.39 11.5748 253.683 9.37073 253.739C8.95228 253.739 8.55097 253.561 8.25509 253.244C7.9592 252.927 7.79297 252.495 7.79297 252.046C7.79297 251.596 7.9592 251.166 8.25509 250.848C8.55097 250.531 8.95228 250.352 9.37073 250.352C12.1488 250.294 14.8744 251.169 17.167 252.853C18.9919 254.168 21.1393 254.869 23.3365 254.869C25.5337 254.869 27.6811 254.168 29.5058 252.853C31.8232 251.221 34.5343 250.352 37.3058 250.352C40.0773 250.352 42.7884 251.222 45.1056 252.853C46.9076 254.219 49.0711 254.925 51.2761 254.869C51.6945 254.869 52.0958 255.047 52.3917 255.365C52.6876 255.683 52.8538 256.113 52.8538 256.562C52.8538 257.011 52.6876 257.442 52.3917 257.759C52.0958 258.077 51.6945 258.255 51.2761 258.255Z" fill="#A9C0FF"/>
<path d="M701.737 366.468C698.958 366.526 696.232 365.653 693.938 363.967C692.113 362.654 689.963 361.952 687.765 361.952C685.567 361.952 683.419 362.654 681.593 363.967C679.276 365.6 676.565 366.468 673.795 366.468C671.024 366.468 668.315 365.6 665.998 363.967C664.197 362.603 662.036 361.895 659.831 361.952C659.412 361.952 659.012 361.773 658.716 361.456C658.419 361.138 658.254 360.708 658.254 360.259C658.254 359.809 658.419 359.379 658.716 359.061C659.012 358.744 659.412 358.565 659.831 358.565C662.61 358.507 665.334 359.382 667.626 361.066C669.452 362.379 671.598 363.082 673.796 363.082C675.994 363.082 678.141 362.379 679.966 361.066C682.283 359.434 684.994 358.565 687.765 358.565C690.537 358.565 693.248 359.434 695.565 361.066C697.367 362.432 699.532 363.138 701.737 363.082C702.155 363.082 702.557 363.26 702.852 363.578C703.148 363.895 703.315 364.326 703.315 364.775C703.315 365.224 703.148 365.655 702.852 365.972C702.557 366.29 702.155 366.468 701.737 366.468Z" fill="#A9C0FF"/>
<path d="M701.737 377.851C698.958 377.909 696.232 377.034 693.938 375.35C692.113 374.035 689.963 373.334 687.765 373.334C685.567 373.334 683.419 374.035 681.593 375.35C679.276 376.981 676.565 377.851 673.795 377.851C671.024 377.851 668.315 376.981 665.998 375.35C664.197 373.984 662.036 373.276 659.831 373.334C659.412 373.334 659.012 373.156 658.716 372.838C658.419 372.52 658.254 372.09 658.254 371.641C658.254 371.192 658.419 370.76 658.716 370.442C659.012 370.124 659.412 369.946 659.831 369.946C662.61 369.888 665.334 370.763 667.626 372.447C669.452 373.761 671.598 374.463 673.796 374.463C675.994 374.463 678.141 373.761 679.966 372.447C682.283 370.816 684.994 369.946 687.765 369.946C690.537 369.946 693.248 370.816 695.565 372.447C697.367 373.813 699.532 374.52 701.737 374.463C702.155 374.463 702.557 374.641 702.852 374.959C703.148 375.276 703.315 375.707 703.315 376.156C703.315 376.605 703.148 377.037 702.852 377.355C702.557 377.672 702.155 377.851 701.737 377.851Z" fill="#A9C0FF"/>
<path d="M701.737 389.228C698.958 389.286 696.232 388.413 693.938 386.727C692.113 385.414 689.963 384.712 687.765 384.712C685.567 384.712 683.419 385.414 681.593 386.727C679.276 388.36 676.565 389.228 673.795 389.228C671.024 389.228 668.315 388.36 665.998 386.727C664.197 385.363 662.036 384.655 659.831 384.712C659.412 384.712 659.012 384.533 658.716 384.217C658.419 383.899 658.254 383.467 658.254 383.018C658.254 382.569 658.419 382.139 658.716 381.821C659.012 381.503 659.412 381.325 659.831 381.325C662.61 381.267 665.334 382.142 667.626 383.826C669.452 385.14 671.598 385.841 673.796 385.841C675.994 385.841 678.141 385.14 679.966 383.826C682.283 382.194 684.994 381.325 687.765 381.325C690.537 381.325 693.248 382.194 695.565 383.826C697.367 385.192 699.532 385.898 701.737 385.841C702.155 385.841 702.557 386.02 702.852 386.338C703.148 386.655 703.315 387.086 703.315 387.535C703.315 387.984 703.148 388.414 702.852 388.732C702.557 389.05 702.155 389.228 701.737 389.228Z" fill="#A9C0FF"/>
<path d="M556.729 32.334C553.95 32.3918 551.224 31.5176 548.929 29.8333C547.105 28.5194 544.956 27.8178 542.759 27.8177C540.561 27.8177 538.412 28.5189 536.587 29.8327C534.27 31.4647 531.559 32.334 528.788 32.334C526.018 32.334 523.307 31.4647 520.99 29.8327C519.189 28.4674 517.028 27.7609 514.823 27.8177C514.405 27.8177 514.004 27.6393 513.708 27.3217C513.412 27.004 513.246 26.5732 513.246 26.124C513.246 25.6749 513.412 25.2441 513.708 24.9265C514.004 24.6088 514.405 24.4304 514.823 24.4304C517.6 24.3725 520.326 25.247 522.619 26.9317C524.444 28.2455 526.592 28.9468 528.788 28.9468C530.986 28.9466 533.133 28.2451 534.958 26.9313C537.275 25.2996 539.986 24.4304 542.757 24.4304C545.529 24.4304 548.24 25.2996 550.557 26.9313C552.359 28.297 554.523 29.0038 556.729 28.9468C557.147 28.9468 557.548 29.1252 557.844 29.4429C558.14 29.7604 558.306 30.1913 558.306 30.6404C558.306 31.0895 558.14 31.5204 557.844 31.8379C557.548 32.1556 557.147 32.334 556.729 32.334Z" fill="#A9C0FF"/>
<path d="M556.729 43.7168C553.95 43.7746 551.224 42.9004 548.929 41.216C547.105 39.9022 544.956 39.2005 542.759 39.2005C540.561 39.2003 538.412 39.9017 536.587 41.2155C534.27 42.8473 531.559 43.7168 528.788 43.7168C526.018 43.7168 523.307 42.8473 520.99 41.2155C519.189 39.8502 517.028 39.1437 514.823 39.2005C514.405 39.2005 514.004 39.0221 513.708 38.7044C513.412 38.3868 513.246 37.956 513.246 37.5069C513.246 37.0577 513.412 36.6269 513.708 36.3093C514.004 35.9917 514.405 35.8132 514.823 35.8132C517.6 35.7553 520.326 36.6299 522.619 38.3145C524.444 39.6282 526.592 40.3296 528.788 40.3296C530.986 40.3294 533.133 39.6279 534.958 38.3139C537.275 36.6824 539.986 35.8132 542.757 35.8132C545.529 35.8132 548.24 36.6824 550.557 38.3139C552.359 39.6798 554.523 40.3866 556.729 40.3296C557.147 40.3296 557.548 40.508 557.844 40.8255C558.14 41.1432 558.306 41.5739 558.306 42.0232C558.306 42.4724 558.14 42.903 557.844 43.2207C557.548 43.5383 557.147 43.7168 556.729 43.7168Z" fill="#A9C0FF"/>
<path d="M556.729 55.0977C553.95 55.1554 551.224 54.2814 548.929 52.597C547.105 51.2831 544.956 50.5815 542.759 50.5813C540.561 50.5813 538.412 51.2827 536.587 52.5964C534.27 54.2283 531.559 55.0977 528.788 55.0977C526.018 55.0977 523.307 54.2283 520.99 52.5964C519.189 51.2311 517.028 50.5245 514.823 50.5813C514.405 50.5813 514.004 50.4029 513.708 50.0854C513.412 49.7677 513.246 49.337 513.246 48.8877C513.246 48.4386 513.412 48.0079 513.708 47.6902C514.004 47.3727 514.405 47.1941 514.823 47.1941C517.6 47.1363 520.326 48.0107 522.619 49.6954C524.444 51.0092 526.592 51.7106 528.788 51.7104C530.986 51.7104 533.133 51.0087 534.958 49.6949C537.275 48.0634 539.986 47.1941 542.757 47.1941C545.529 47.1941 548.24 48.0634 550.557 49.6949C552.359 51.0607 554.523 51.7674 556.729 51.7104C557.147 51.7104 557.548 51.8889 557.844 52.2065C558.14 52.5241 558.306 52.9549 558.306 53.4041C558.306 53.8532 558.14 54.284 557.844 54.6016C557.548 54.9193 557.147 55.0977 556.729 55.0977Z" fill="#A9C0FF"/>
<path d="M525.703 393.385H514.037C512.875 393.385 511.934 394.396 511.934 395.643V541.292C511.934 542.539 512.875 543.55 514.037 543.55H525.703C526.865 543.55 527.807 542.539 527.807 541.292V395.643C527.807 394.396 526.865 393.385 525.703 393.385Z" fill="#4D76B8"/>
<path d="M741 393.385H729.334C728.172 393.385 727.23 394.396 727.23 395.643V541.292C727.23 542.539 728.172 543.55 729.334 543.55H741C742.162 543.55 743.104 542.539 743.104 541.292V395.643C743.104 394.396 742.162 393.385 741 393.385Z" fill="#4D76B8"/>
<path d="M760.468 411.015V462.55C760.469 463.328 760.325 464.097 760.049 464.814C759.772 465.533 759.365 466.185 758.854 466.734C758.343 467.284 757.735 467.72 757.066 468.016C756.396 468.314 755.68 468.467 754.956 468.467H500.083C499.358 468.467 498.642 468.314 497.973 468.016C497.304 467.72 496.697 467.284 496.184 466.734C495.673 466.185 495.267 465.533 494.989 464.814C494.713 464.097 494.57 463.328 494.57 462.55V411.015C494.57 410.239 494.713 409.469 494.989 408.751C495.267 408.034 495.673 407.381 496.184 406.832C496.697 406.283 497.304 405.846 497.973 405.549C498.642 405.251 499.358 405.1 500.083 405.1H754.956C755.502 405.098 756.045 405.183 756.568 405.35C756.615 405.38 756.666 405.399 756.721 405.409C757.813 405.805 758.761 406.56 759.435 407.566C760.107 408.571 760.468 409.777 760.468 411.015Z" fill="#A9C0FF"/>
<path d="M525.258 405.1L505.015 468.467H500.083C499.358 468.467 498.642 468.314 497.973 468.016C497.304 467.72 496.697 467.284 496.184 466.734C495.673 466.185 495.267 465.533 494.989 464.814C494.713 464.097 494.57 463.328 494.57 462.55V411.017C494.57 410.239 494.713 409.469 494.989 408.751C495.267 408.034 495.673 407.381 496.184 406.832C496.697 406.283 497.304 405.846 497.973 405.549C498.642 405.251 499.358 405.1 500.083 405.1H525.258Z" fill="#A9C0FF"/>
<path d="M558.385 405.1L538.143 468.467H504.906L525.149 405.1H558.385Z" fill="#92B1EF"/>
<path d="M591.456 405.1L571.213 468.467H537.977L558.219 405.1H591.456Z" fill="#A9C0FF"/>
<path d="M624.53 405.1L604.287 468.467H571.051L591.292 405.1H624.53Z" fill="#92B1EF"/>
<path d="M657.602 405.1L637.359 468.467H604.121L624.365 405.1H657.602Z" fill="#A9C0FF"/>
<path d="M690.674 405.1L670.432 468.467H637.195L657.438 405.1H690.674Z" fill="#92B1EF"/>
<path d="M723.745 405.1L703.502 468.467H670.266L690.508 405.1H723.745Z" fill="#A9C0FF"/>
<path d="M756.719 405.409L736.572 468.467H703.336L723.579 405.1H754.956C755.503 405.098 756.045 405.183 756.568 405.35C756.615 405.38 756.666 405.399 756.719 405.409Z" fill="#92B1EF"/>
<path d="M760.469 411.016V462.549C760.471 463.327 760.327 464.097 760.051 464.814C759.774 465.532 759.369 466.185 758.856 466.734C758.344 467.283 757.737 467.72 757.068 468.017C756.4 468.313 755.681 468.466 754.958 468.466H736.41L756.57 405.35C756.618 405.379 756.668 405.398 756.722 405.409C757.815 405.805 758.763 406.559 759.437 407.566C760.109 408.57 760.471 409.777 760.469 411.016Z" fill="#A9C0FF"/>
<path d="M453.372 159.707H393.889C393.439 159.707 392.995 159.583 392.601 159.349C392.209 159.112 391.878 158.773 391.641 158.361C391.403 157.949 391.269 157.48 391.249 156.998C391.228 156.514 391.324 156.033 391.525 155.601L421.266 91.7501C421.486 91.2787 421.824 90.8824 422.241 90.6054C422.658 90.3284 423.14 90.1816 423.63 90.1816C424.121 90.1816 424.603 90.3284 425.02 90.6054C425.437 90.8824 425.775 91.2787 425.995 91.7501L455.736 155.601C455.938 156.033 456.034 156.514 456.012 156.998C455.992 157.48 455.858 157.949 455.62 158.361C455.383 158.773 455.052 159.112 454.66 159.349C454.266 159.583 453.822 159.707 453.372 159.707Z" fill="#A9C0FF"/>
<path d="M403.883 129.064H443.373L437.425 116.297H409.831L403.883 129.064Z" fill="#4D76B8"/>
<path d="M391.522 155.6C391.449 155.77 391.391 155.948 391.352 156.131H455.904C455.865 155.948 455.807 155.77 455.734 155.6L450.034 143.363H397.222L391.522 155.6Z" fill="#92B1EF"/>
<path d="M460.443 151.535H386.814C386.233 151.535 385.762 152.041 385.762 152.664V163.174C385.762 163.797 386.233 164.303 386.814 164.303H460.443C461.024 164.303 461.496 163.797 461.496 163.174V152.664C461.496 152.041 461.024 151.535 460.443 151.535Z" fill="#A9C0FF"/>
<path d="M422.577 196.109C410.929 196.109 399.54 192.402 389.855 185.455C380.17 178.508 372.621 168.635 368.163 157.082C363.706 145.529 362.539 132.818 364.811 120.554C367.084 108.29 372.692 97.025 380.93 88.1832C389.167 79.3416 399.661 73.3202 411.086 70.8809C422.511 68.4414 434.354 69.6934 445.115 74.4784C455.878 79.2636 465.076 87.3669 471.547 97.7636C478.02 108.16 481.474 120.384 481.474 132.888C481.456 149.649 475.245 165.719 464.204 177.571C453.162 189.424 438.192 196.09 422.577 196.109ZM422.577 73.0532C411.553 73.0532 400.775 76.5625 391.608 83.1373C382.442 89.7119 375.297 99.0568 371.079 109.99C366.858 120.923 365.755 132.954 367.906 144.561C370.058 156.168 375.365 166.829 383.162 175.197C390.957 183.564 400.889 189.264 411.702 191.572C422.515 193.881 433.722 192.696 443.908 188.167C454.093 183.64 462.799 175.97 468.924 166.131C475.049 156.29 478.318 144.722 478.318 132.888C478.302 117.024 472.423 101.816 461.973 90.5983C451.523 79.381 437.354 73.0712 422.577 73.0532Z" fill="#4D76B8"/>
<path d="M137.233 524.057C148.55 522.757 155.544 499.842 152.856 472.878C150.166 445.915 138.812 425.11 127.495 426.409C116.178 427.71 109.183 450.624 111.872 477.588C114.561 504.553 125.915 525.358 137.233 524.057Z" fill="#92B1EF"/>
<path d="M152.857 472.88C152.58 470.106 152.207 467.404 151.757 464.779C148.116 470.51 145.033 476.628 142.554 483.033C136.496 498.545 134.426 513.705 136.23 524.112C136.565 524.112 136.9 524.095 137.233 524.057C148.551 522.757 155.545 499.844 152.857 472.88Z" fill="#7894C1"/>
<path d="M183.867 501.679C193.633 476.669 193.043 452.566 182.546 447.843C172.049 443.118 155.622 459.563 145.854 484.572C136.087 509.582 136.678 533.686 147.175 538.409C157.671 543.134 174.099 526.689 183.867 501.679Z" fill="#6299E8"/>
<path d="M194.14 483.711H106.931C106.386 483.711 105.847 483.842 105.355 484.096C104.863 484.348 104.429 484.716 104.087 485.173C103.744 485.628 103.501 486.16 103.376 486.73C103.25 487.299 103.245 487.893 103.36 488.465L113.955 540.89C114.132 541.767 114.583 542.551 115.233 543.113C115.882 543.674 116.692 543.981 117.526 543.981H183.546C184.38 543.981 185.189 543.674 185.838 543.113C186.488 542.551 186.939 541.767 187.116 540.89L197.711 488.465C197.827 487.893 197.822 487.299 197.696 486.73C197.571 486.16 197.327 485.628 196.985 485.173C196.642 484.716 196.208 484.348 195.717 484.096C195.224 483.842 194.686 483.711 194.14 483.711Z" fill="#A9C0FF"/>
<path d="M190.463 524.337L195.882 497.518H105.191L110.61 524.337H190.463Z" fill="#92B1EF"/>
<path d="M120.464 437.31C119.836 437.524 119.173 437.59 118.519 437.506C117.861 437.434 117.218 437.247 116.615 436.955C116.005 436.657 115.453 436.238 114.99 435.72C114.521 435.211 114.18 434.585 113.996 433.898C114.547 434.305 114.998 434.717 115.514 435.041C116.007 435.377 116.522 435.673 117.055 435.93C118.115 436.465 119.233 436.845 120.464 437.31Z" fill="#4D76B8"/>
<path d="M141.407 429.422C141.485 430.125 141.422 430.837 141.222 431.51C141.033 432.19 140.742 432.834 140.361 433.414C139.975 434.003 139.488 434.505 138.927 434.898C138.374 435.297 137.737 435.539 137.074 435.604C137.55 435.1 138.011 434.701 138.404 434.219C138.803 433.762 139.171 433.273 139.505 432.76C140.191 431.682 140.826 430.569 141.407 429.422Z" fill="#4D76B8"/>
<path d="M130.532 423.773C130.61 424.476 130.547 425.188 130.347 425.861C130.158 426.542 129.867 427.185 129.486 427.766C129.1 428.354 128.614 428.856 128.052 429.248C127.499 429.647 126.862 429.891 126.199 429.955C126.675 429.451 127.137 429.052 127.529 428.569C127.928 428.112 128.296 427.625 128.63 427.11C129.316 426.033 129.951 424.919 130.532 423.773Z" fill="#4D76B8"/>
<path d="M141.407 463.555C141.485 464.257 141.422 464.969 141.222 465.642C141.033 466.323 140.742 466.966 140.361 467.547C139.975 468.135 139.488 468.638 138.927 469.029C138.374 469.428 137.737 469.672 137.074 469.736C137.55 469.232 138.011 468.833 138.404 468.35C138.803 467.893 139.171 467.406 139.505 466.891C140.191 465.814 140.826 464.7 141.407 463.555Z" fill="#4D76B8"/>
<path d="M138.353 445.494C138.43 446.195 138.367 446.907 138.167 447.58C137.978 448.261 137.687 448.904 137.306 449.485C136.92 450.073 136.434 450.576 135.872 450.968C135.32 451.368 134.683 451.61 134.02 451.674C134.495 451.17 134.957 450.771 135.349 450.289C135.748 449.832 136.116 449.344 136.45 448.831C137.138 447.812 137.696 446.704 138.353 445.494Z" fill="#4D76B8"/>
<path d="M151.016 448.559C151.094 449.26 151.031 449.972 150.831 450.645C150.642 451.325 150.351 451.969 149.97 452.549C149.585 453.138 149.098 453.64 148.536 454.033C147.984 454.432 147.347 454.675 146.684 454.739C147.159 454.235 147.621 453.836 148.013 453.354C148.412 452.897 148.78 452.408 149.114 451.895C149.8 450.817 150.434 449.704 151.016 448.559Z" fill="#4D76B8"/>
<path d="M194.105 459.807C193.691 460.356 193.173 460.804 192.584 461.121C191.998 461.45 191.366 461.675 190.712 461.788C190.052 461.902 189.377 461.88 188.723 461.722C188.071 461.575 187.463 461.256 186.957 460.791C187.626 460.805 188.215 460.882 188.811 460.846C189.395 460.833 189.976 460.775 190.552 460.674C191.712 460.492 192.841 460.146 194.105 459.807Z" fill="#4D76B8"/>
<path d="M187.848 446.514C187.622 447.177 187.264 447.781 186.802 448.285C186.347 448.8 185.818 449.232 185.232 449.565C184.641 449.903 183.995 450.115 183.329 450.191C182.668 450.279 181.998 450.187 181.379 449.922C182.014 449.705 182.595 449.573 183.148 449.332C183.698 449.118 184.231 448.863 184.745 448.565C185.811 447.938 186.845 447.252 187.848 446.514Z" fill="#4D76B8"/>
<path d="M151.9 480.029C151.258 479.871 150.656 479.565 150.133 479.135C149.601 478.714 149.135 478.202 148.755 477.622C148.37 477.033 148.094 476.371 147.941 475.672C147.778 474.978 147.78 474.252 147.948 473.561C148.229 474.212 148.422 474.813 148.713 475.373C148.978 475.931 149.281 476.467 149.619 476.978C150.278 478.018 151.061 478.957 151.9 480.029Z" fill="#4D76B8"/>
<path d="M159.599 464.568C158.958 464.408 158.355 464.104 157.832 463.674C157.3 463.253 156.835 462.741 156.454 462.161C156.07 461.571 155.793 460.909 155.64 460.209C155.477 459.516 155.48 458.791 155.647 458.1C155.928 458.751 156.121 459.352 156.412 459.912C156.678 460.469 156.98 461.006 157.318 461.517C158.031 462.574 158.792 463.593 159.599 464.568Z" fill="#4D76B8"/>
<path d="M166.839 478.286C166.196 478.126 165.594 477.821 165.071 477.392C164.538 476.97 164.073 476.458 163.693 475.878C163.308 475.289 163.031 474.627 162.878 473.928C162.715 473.234 162.718 472.508 162.885 471.816C163.166 472.467 163.36 473.068 163.65 473.629C163.916 474.187 164.219 474.724 164.556 475.234C165.269 476.292 166.031 477.309 166.839 478.286Z" fill="#4D76B8"/>
<path d="M171.459 453.526C170.817 453.367 170.214 453.061 169.691 452.633C169.16 452.21 168.693 451.7 168.314 451.118C167.929 450.529 167.652 449.867 167.498 449.168C167.336 448.475 167.339 447.748 167.507 447.057C167.786 447.708 167.98 448.31 168.271 448.869C168.538 449.428 168.841 449.964 169.178 450.475C169.837 451.515 170.62 452.453 171.459 453.526Z" fill="#4D76B8"/>
<path d="M181.379 465.121C180.965 465.67 180.445 466.118 179.858 466.436C179.27 466.764 178.638 466.991 177.986 467.104C177.324 467.217 176.648 467.195 175.995 467.037C175.343 466.891 174.737 466.57 174.23 466.107C174.899 466.12 175.487 466.196 176.084 466.16C176.667 466.148 177.249 466.09 177.825 465.988C179.022 465.763 180.208 465.473 181.379 465.121Z" fill="#4D76B8"/>
<path d="M191.195 478.287C190.781 478.836 190.263 479.284 189.674 479.602C189.088 479.93 188.456 480.157 187.802 480.27C187.142 480.383 186.465 480.361 185.813 480.203C185.161 480.057 184.553 479.736 184.047 479.273C184.716 479.286 185.303 479.362 185.901 479.326C186.483 479.314 187.066 479.256 187.642 479.154C188.8 478.973 189.929 478.628 191.195 478.287Z" fill="#4D76B8"/>
<path d="M125.761 450.29C125.133 450.503 124.47 450.569 123.816 450.484C123.157 450.412 122.514 450.226 121.912 449.933C121.302 449.636 120.75 449.217 120.286 448.699C119.818 448.19 119.476 447.564 119.293 446.877C119.843 447.284 120.294 447.697 120.81 448.019C121.303 448.356 121.818 448.652 122.351 448.908C123.465 449.429 124.603 449.891 125.761 450.29Z" fill="#4D76B8"/>
<path d="M126.202 466.646C125.574 466.858 124.911 466.926 124.258 466.841C123.599 466.768 122.956 466.581 122.353 466.289C121.743 465.993 121.192 465.574 120.728 465.054C120.26 464.547 119.918 463.919 119.734 463.232C120.285 463.641 120.736 464.052 121.252 464.376C121.745 464.711 122.26 465.009 122.793 465.264C123.907 465.785 125.045 466.247 126.202 466.646Z" fill="#4D76B8"/>
<path d="M135.597 480.207C134.969 480.419 134.306 480.487 133.652 480.402C132.994 480.33 132.351 480.144 131.748 479.85C131.138 479.554 130.586 479.135 130.123 478.615C129.654 478.108 129.312 477.482 129.129 476.795C129.679 477.202 130.131 477.613 130.647 477.937C131.139 478.272 131.654 478.57 132.187 478.825C133.302 479.347 134.439 479.807 135.597 480.207Z" fill="#4D76B8"/>
<path d="M115.183 456.446C114.555 456.659 113.892 456.725 113.238 456.64C112.58 456.568 111.937 456.382 111.334 456.09C110.724 455.792 110.172 455.373 109.709 454.855C109.24 454.346 108.898 453.72 108.715 453.033C109.265 453.44 109.717 453.853 110.233 454.176C110.725 454.512 111.24 454.808 111.773 455.065C112.888 455.586 114.025 456.047 115.183 456.446Z" fill="#4D76B8"/>
<path d="M115.183 474.763C114.555 474.978 113.892 475.043 113.238 474.959C112.58 474.887 111.937 474.701 111.334 474.408C110.724 474.111 110.172 473.691 109.709 473.173C109.24 472.665 108.898 472.039 108.715 471.352C109.265 471.758 109.717 472.172 110.233 472.494C110.725 472.83 111.24 473.126 111.773 473.383C112.888 473.904 114.025 474.364 115.183 474.763Z" fill="#4D76B8"/>
<path d="M805.994 543.549H42.8594V553.71H805.994V543.549Z" fill="#456BA3"/>
<g opacity="0.28">
<path d="M732.505 160.424H556.241C550.417 160.424 545.695 165.491 545.695 171.743V287.41C545.695 293.662 550.417 298.731 556.241 298.731H732.505C738.329 298.731 743.051 293.662 743.051 287.41V171.743C743.051 165.491 738.329 160.424 732.505 160.424Z" fill="#6299E8"/>
</g>
<path d="M751.947 142.977H575.683C569.858 142.977 565.137 148.045 565.137 154.297V269.965C565.137 276.217 569.858 281.284 575.683 281.284H751.947C757.771 281.284 762.493 276.217 762.493 269.965V154.297C762.493 148.045 757.771 142.977 751.947 142.977Z" fill="white"/>
<path d="M751.946 282.976H575.682C572.468 282.973 569.386 281.6 567.114 279.161C564.84 276.721 563.562 273.412 563.559 269.963V154.295C563.562 150.845 564.84 147.537 567.114 145.097C569.386 142.658 572.468 141.285 575.682 141.281H751.946C755.16 141.285 758.242 142.658 760.516 145.097C762.788 147.537 764.066 150.845 764.071 154.295V269.963C764.066 273.412 762.788 276.721 760.516 279.161C758.242 281.6 755.16 282.973 751.946 282.976ZM575.682 144.668C573.303 144.671 571.024 145.686 569.343 147.491C567.661 149.296 566.716 151.743 566.713 154.295V269.963C566.716 272.516 567.661 274.962 569.343 276.766C571.024 278.571 573.305 279.586 575.682 279.589H751.946C754.324 279.586 756.603 278.571 758.285 276.766C759.966 274.962 760.911 272.516 760.914 269.963V154.295C760.911 151.743 759.966 149.296 758.285 147.491C756.603 145.686 754.324 144.671 751.946 144.668H575.682Z" fill="#4D76B8"/>
<path d="M743.381 194.549H679.48V197.935H743.381V194.549Z" fill="#4D76B8"/>
<path d="M743.381 211.418H679.48V214.805H743.381V211.418Z" fill="#4D76B8"/>
<path d="M743.381 228.287H679.48V231.674H743.381V228.287Z" fill="#4D76B8"/>
<path d="M743.379 245.682H584.812V249.068H743.379V245.682Z" fill="#4D76B8"/>
<path d="M743.379 261.127H584.812V264.514H743.379V261.127Z" fill="#4D76B8"/>
<g opacity="0.19">
<path d="M655.402 190.336H590.498C588.755 190.336 587.344 191.852 587.344 193.724V236.515C587.344 238.387 588.755 239.903 590.498 239.903H655.402C657.145 239.903 658.558 238.387 658.558 236.515V193.724C658.558 191.852 657.145 190.336 655.402 190.336Z" fill="#AAAAAA"/>
</g>
<path d="M762.493 170.094H565.137V173.48H762.493V170.094Z" fill="#4D76B8"/>
<path d="M595.758 234.519H660.661C662.404 234.519 663.816 233.002 663.816 231.132V188.34C663.816 186.47 662.404 184.953 660.661 184.953H595.758C594.015 184.953 592.602 186.47 592.602 188.34V231.132C592.602 233.002 594.015 234.519 595.758 234.519Z" fill="#92B1EF"/>
<path d="M599.115 190.115L597.586 193.078L657.036 228.44L658.566 225.477L599.115 190.115Z" fill="#4D76B8"/>
<path d="M599.115 190.115L597.586 193.078L657.036 228.44L658.566 225.477L599.115 190.115Z" fill="#4D76B8"/>
<path d="M657.041 190.123L597.582 225.468L599.11 228.43L658.57 193.086L657.041 190.123Z" fill="#4D76B8"/>
<g opacity="0.28">
<path d="M291.332 365.074H167.796C166.053 365.074 164.641 366.591 164.641 368.461V422.847C164.641 424.718 166.053 426.235 167.796 426.235H291.332C293.075 426.235 294.489 424.718 294.489 422.847V368.461C294.489 366.591 293.075 365.074 291.332 365.074Z" fill="#6299E8"/>
</g>
<path d="M280.29 352.934H156.753C155.011 352.934 153.598 354.452 153.598 356.322V410.708C153.598 412.579 155.011 414.096 156.753 414.096H280.29C282.033 414.096 283.445 412.579 283.445 410.708V356.322C283.445 354.452 282.033 352.934 280.29 352.934Z" fill="white"/>
<path d="M280.29 415.789H156.753C155.498 415.787 154.295 415.251 153.407 414.299C152.52 413.346 152.021 412.055 152.02 410.708V356.322C152.021 354.974 152.52 353.683 153.407 352.73C154.295 351.779 155.498 351.242 156.753 351.24H280.29C281.545 351.242 282.748 351.779 283.635 352.73C284.522 353.683 285.022 354.974 285.024 356.322V410.708C285.022 412.055 284.522 413.346 283.635 414.299C282.748 415.251 281.545 415.787 280.29 415.789ZM156.753 354.628C156.335 354.628 155.934 354.807 155.638 355.125C155.342 355.442 155.176 355.873 155.175 356.322V410.708C155.176 411.157 155.342 411.587 155.638 411.905C155.934 412.223 156.335 412.401 156.753 412.401H280.29C280.709 412.401 281.109 412.223 281.406 411.905C281.7 411.587 281.867 411.157 281.867 410.708V356.322C281.867 355.873 281.7 355.442 281.406 355.125C281.109 354.807 280.709 354.628 280.29 354.628H156.753Z" fill="#4D76B8"/>
<path d="M175.046 381.821C173.587 381.821 172.158 381.356 170.945 380.486C169.73 379.614 168.785 378.378 168.226 376.93C167.668 375.483 167.521 373.89 167.806 372.353C168.09 370.814 168.794 369.403 169.826 368.295C170.859 367.187 172.173 366.432 173.605 366.127C175.036 365.821 176.521 365.979 177.87 366.578C179.219 367.177 180.371 368.193 181.183 369.497C181.994 370.799 182.426 372.331 182.426 373.897C182.424 375.999 181.645 378.012 180.261 379.497C178.878 380.982 177.003 381.818 175.046 381.821ZM175.046 369.362C174.211 369.362 173.393 369.628 172.698 370.126C172.003 370.625 171.461 371.332 171.142 372.162C170.821 372.99 170.738 373.902 170.9 374.782C171.064 375.661 171.466 376.47 172.057 377.104C172.648 377.739 173.401 378.171 174.22 378.347C175.04 378.52 175.89 378.431 176.662 378.088C177.435 377.746 178.093 377.163 178.558 376.419C179.022 375.672 179.27 374.796 179.27 373.897C179.268 372.695 178.823 371.544 178.032 370.692C177.239 369.843 176.165 369.364 175.046 369.362Z" fill="#4D76B8"/>
<path d="M175.046 402.754C173.587 402.754 172.158 402.289 170.945 401.419C169.73 400.549 168.785 399.311 168.226 397.863C167.668 396.416 167.521 394.822 167.806 393.286C168.09 391.749 168.794 390.337 169.826 389.229C170.857 388.121 172.173 387.365 173.605 387.06C175.036 386.755 176.521 386.912 177.87 387.511C179.219 388.11 180.371 389.126 181.181 390.428C181.992 391.732 182.426 393.264 182.426 394.83C182.424 396.93 181.645 398.945 180.261 400.43C178.878 401.915 177.003 402.751 175.046 402.754ZM175.046 390.295C174.211 390.295 173.393 390.561 172.698 391.059C172.003 391.558 171.461 392.265 171.142 393.095C170.821 393.924 170.738 394.835 170.9 395.716C171.064 396.596 171.466 397.403 172.057 398.038C172.648 398.672 173.401 399.104 174.22 399.279C175.041 399.455 175.89 399.364 176.662 399.021C177.435 398.677 178.095 398.096 178.558 397.35C179.023 396.605 179.27 395.727 179.27 394.83C179.268 393.628 178.823 392.475 178.032 391.625C177.239 390.775 176.165 390.297 175.046 390.295Z" fill="#4D76B8"/>
<path d="M269.798 372.203H189.332V375.591H269.798V372.203Z" fill="#4D76B8"/>
<path d="M269.798 393.137H189.332V396.523H269.798V393.137Z" fill="#4D76B8"/>
<path d="M473.732 297.305H339.035C336.712 297.305 334.828 299.327 334.828 301.821V387.441C334.828 389.935 336.712 391.957 339.035 391.957H473.732C476.055 391.957 477.939 389.935 477.939 387.441V301.821C477.939 299.327 476.055 297.305 473.732 297.305Z" fill="#D9EBFF"/>
<path d="M367.797 325.59C368.67 325.302 369.56 325.083 370.46 324.933C371.361 324.769 372.271 324.679 373.184 324.67C374.1 324.667 375.013 324.767 375.909 324.966C376.741 325.144 377.539 325.478 378.264 325.952C378.957 326.41 379.527 327.057 379.917 327.823C380.351 328.737 380.563 329.755 380.53 330.78V348.254H385.975C386.269 348.866 386.516 349.503 386.711 350.159C386.958 350.965 387.08 351.807 387.077 352.655C387.136 353.292 387.075 353.933 386.896 354.544C386.718 355.154 386.425 355.717 386.037 356.203C385.323 356.913 384.377 357.29 383.404 357.256H380.53V365.007C380.079 365.095 379.406 365.214 378.509 365.369C377.66 365.516 376.799 365.592 375.937 365.597C375.141 365.603 374.345 365.56 373.552 365.466C372.933 365.405 372.337 365.192 371.808 364.841C371.326 364.499 370.952 364.006 370.735 363.43C370.462 362.632 370.336 361.783 370.368 360.934V357.256H355.007C354.037 356.699 353.208 355.897 352.589 354.922C351.893 353.807 351.54 352.486 351.581 351.145C351.591 350.215 351.694 349.29 351.888 348.386C352.065 347.443 352.419 346.55 352.927 345.756L367.797 325.59ZM370.92 335.903H370.735L362.596 348.254H370.92V335.903Z" fill="#4D76B8"/>
<path d="M422.937 345.101C422.981 348.153 422.568 351.192 421.712 354.103C421.004 356.524 419.848 358.77 418.317 360.705C416.892 362.46 415.113 363.842 413.116 364.745C408.874 366.582 404.135 366.582 399.895 364.745C397.898 363.842 396.117 362.46 394.694 360.705C393.164 358.773 392.019 356.525 391.326 354.103C390.491 351.187 390.089 348.15 390.132 345.101C390.088 342.063 390.49 339.037 391.326 336.134C392.022 333.722 393.168 331.487 394.694 329.564C396.117 327.81 397.898 326.428 399.895 325.525C404.135 323.684 408.875 323.684 413.116 325.525C415.113 326.428 416.892 327.81 418.317 329.564C419.845 331.49 420.999 333.724 421.712 336.134C422.569 339.032 422.983 342.06 422.937 345.101ZM412.472 345.101C412.619 342.032 412.085 338.97 410.911 336.167C410.539 335.234 409.92 334.439 409.132 333.879C408.343 333.317 407.419 333.016 406.472 333.013C405.534 333.013 404.617 333.314 403.838 333.876C403.058 334.437 402.452 335.234 402.098 336.167C400.969 338.984 400.456 342.038 400.6 345.101C400.46 348.173 400.971 351.24 402.098 354.068C402.447 355.007 403.051 355.813 403.831 356.381C404.61 356.948 405.531 357.253 406.472 357.256C407.422 357.25 408.349 356.945 409.137 356.378C409.926 355.812 410.544 355.009 410.911 354.068C412.083 351.253 412.618 348.181 412.472 345.101Z" fill="#4D76B8"/>
<path d="M442.886 325.59C443.759 325.302 444.649 325.083 445.549 324.933C446.448 324.769 447.358 324.681 448.272 324.67C449.187 324.667 450.099 324.767 450.996 324.966C451.829 325.144 452.626 325.478 453.351 325.952C454.045 326.41 454.614 327.057 455.003 327.823C455.44 328.737 455.65 329.755 455.615 330.78V348.254H461.064C461.358 348.864 461.603 349.503 461.797 350.159C462.045 350.965 462.169 351.807 462.166 352.655C462.225 353.292 462.164 353.933 461.984 354.544C461.805 355.154 461.512 355.719 461.123 356.203C460.41 356.913 459.465 357.292 458.492 357.256H455.615V365.007C455.165 365.095 454.495 365.214 453.596 365.369C452.747 365.516 451.886 365.592 451.026 365.597C450.228 365.603 449.432 365.56 448.639 365.466C448.02 365.405 447.423 365.192 446.895 364.841C446.413 364.497 446.041 364.006 445.824 363.43C445.551 362.632 445.425 361.783 445.457 360.934V357.256H430.096C429.126 356.699 428.297 355.897 427.678 354.922C426.98 353.808 426.627 352.486 426.667 351.145C426.679 350.217 426.781 349.292 426.973 348.386C427.152 347.443 427.506 346.548 428.016 345.756L442.886 325.59ZM446.008 335.903H445.824L437.685 348.254H446.008V335.903Z" fill="#4D76B8"/>
<path d="M565.465 97.3007L558.682 90.0195L551.898 97.3007L558.682 104.582L565.465 97.3007Z" fill="#A9C0FF"/>
<path d="M579.73 97.3027L572.948 90.0215L566.164 97.3027L572.948 104.584L579.73 97.3027Z" fill="#A9C0FF"/>
<path d="M593.992 97.3027L587.208 90.0215L580.426 97.3027L587.208 104.584L593.992 97.3027Z" fill="#A9C0FF"/>
<path d="M641.38 325.837L648.164 318.556L641.38 311.275L634.598 318.556L641.38 325.837Z" fill="#A9C0FF"/>
<path d="M641.38 341.146L648.164 333.866L641.38 326.584L634.598 333.866L641.38 341.146Z" fill="#A9C0FF"/>
<path d="M641.38 356.457L648.164 349.176L641.38 341.895L634.598 349.176L641.38 356.457Z" fill="#A9C0FF"/>
</g>
<defs>
<clipPath id="clip0_272_7305">
<rect width="806" height="554" fill="white"/>
</clipPath>
</defs>
</svg>