<svg width="160" height="160" viewBox="0 0 160 160" fill="none" xmlns="http://www.w3.org/2000/svg">
<ellipse opacity="0.1" cx="80" cy="155.191" rx="80" ry="4.8" fill="#604D18"/>
<path fill-rule="evenodd" clip-rule="evenodd" d="M47.9997 30.4016C47.9997 27.7506 50.1487 25.6016 52.7997 25.6016C55.4506 25.6016 57.5997 27.7506 57.5997 30.4016V33.6016H102.4V30.4016C102.4 27.7506 104.549 25.6016 107.2 25.6016C109.851 25.6016 112 27.7506 112 30.4016V33.6016H121.6C128.669 33.6016 134.4 39.3323 134.4 46.4016V91.4284C145.255 92.9811 153.6 102.317 153.6 113.602C153.6 125.973 143.571 136.002 131.2 136.002C122.909 136.002 115.669 131.497 111.796 124.802H36.7997C30.6141 124.802 25.5997 119.787 25.5997 113.602V46.4016C25.5997 39.3323 31.3304 33.6016 38.3997 33.6016H47.9997V30.4016ZM110.27 121.602C109.32 119.117 108.8 116.42 108.8 113.602C108.8 101.23 118.828 91.2016 131.2 91.2016V54.4016H28.7997V113.602C28.7997 118.02 32.3814 121.602 36.7997 121.602H110.27ZM45.5997 65.6016C42.9487 65.6016 40.7997 67.7506 40.7997 70.4016V75.2016C40.7997 77.8525 42.9487 80.0016 45.5997 80.0016H50.3997C53.0506 80.0016 55.1997 77.8525 55.1997 75.2016V70.4016C55.1997 67.7506 53.0506 65.6016 50.3997 65.6016H45.5997ZM43.9997 70.4016C43.9997 69.5179 44.716 68.8016 45.5997 68.8016H50.3997C51.2833 68.8016 51.9997 69.5179 51.9997 70.4016V75.2016C51.9997 76.0852 51.2833 76.8016 50.3997 76.8016H45.5997C44.716 76.8016 43.9997 76.0852 43.9997 75.2016V70.4016ZM83.9997 70.4016C83.9997 67.7506 86.1487 65.6016 88.7997 65.6016H93.5997C96.2506 65.6016 98.3997 67.7506 98.3997 70.4016V75.2016C98.3997 77.8525 96.2506 80.0016 93.5997 80.0016H88.7997C86.1487 80.0016 83.9997 77.8525 83.9997 75.2016V70.4016ZM88.7997 68.8016C87.916 68.8016 87.1997 69.5179 87.1997 70.4016V75.2016C87.1997 76.0852 87.916 76.8016 88.7997 76.8016H93.5997C94.4833 76.8016 95.1997 76.0852 95.1997 75.2016V70.4016C95.1997 69.5179 94.4833 68.8016 93.5997 68.8016H88.7997ZM109.6 65.6016C106.949 65.6016 104.8 67.7506 104.8 70.4016V75.2016C104.8 77.8525 106.949 80.0016 109.6 80.0016H114.4C117.051 80.0016 119.2 77.8525 119.2 75.2016V70.4016C119.2 67.7506 117.051 65.6016 114.4 65.6016H109.6ZM108 70.4016C108 69.5179 108.716 68.8016 109.6 68.8016H114.4C115.283 68.8016 116 69.5179 116 70.4016V75.2016C116 76.0852 115.283 76.8016 114.4 76.8016H109.6C108.716 76.8016 108 76.0852 108 75.2016V70.4016ZM88.7997 89.6016C86.1487 89.6016 83.9997 91.7506 83.9997 94.4016V99.2016C83.9997 101.853 86.1487 104.002 88.7997 104.002H93.5997C96.2506 104.002 98.3997 101.853 98.3997 99.2016V94.4016C98.3997 91.7506 96.2506 89.6016 93.5997 89.6016H88.7997ZM66.3997 65.6016C63.7487 65.6016 61.5997 67.7506 61.5997 70.4016V75.2016C61.5997 77.8525 63.7487 80.0016 66.3997 80.0016H71.1997C73.8506 80.0016 75.9997 77.8525 75.9997 75.2016V70.4016C75.9997 67.7506 73.8506 65.6016 71.1997 65.6016H66.3997ZM61.5997 94.4016C61.5997 91.7506 63.7487 89.6016 66.3997 89.6016H71.1997C73.8506 89.6016 75.9997 91.7506 75.9997 94.4016V99.2016C75.9997 101.853 73.8506 104.002 71.1997 104.002H66.3997C63.7487 104.002 61.5997 101.853 61.5997 99.2016V94.4016ZM66.3997 92.8016C65.516 92.8016 64.7997 93.5179 64.7997 94.4016V99.2016C64.7997 100.085 65.516 100.802 66.3997 100.802H71.1997C72.0833 100.802 72.7997 100.085 72.7997 99.2016V94.4016C72.7997 93.5179 72.0833 92.8016 71.1997 92.8016H66.3997ZM112 113.602C112 102.998 120.596 94.4016 131.2 94.4016C141.804 94.4016 150.4 102.998 150.4 113.602C150.4 124.205 141.804 132.802 131.2 132.802C120.596 132.802 112 124.205 112 113.602ZM127.2 103.202C127.2 100.992 128.991 99.2016 131.2 99.2016C133.409 99.2016 135.2 100.992 135.2 103.202V112.802C135.2 115.011 133.409 116.802 131.2 116.802C128.991 116.802 127.2 115.011 127.2 112.802V103.202ZM131.2 102.402C130.758 102.402 130.4 102.76 130.4 103.202V112.802C130.4 113.243 130.758 113.602 131.2 113.602C131.642 113.602 132 113.243 132 112.802V103.202C132 102.76 131.642 102.402 131.2 102.402ZM131.2 128.002C128.991 128.002 127.2 126.211 127.2 124.002C127.2 121.792 128.991 120.002 131.2 120.002C133.409 120.002 135.2 121.792 135.2 124.002C135.2 126.211 133.409 128.002 131.2 128.002ZM130.4 124.002C130.4 124.443 130.758 124.802 131.2 124.802C131.642 124.802 132 124.443 132 124.002C132 123.56 131.642 123.202 131.2 123.202C130.758 123.202 130.4 123.56 130.4 124.002ZM19.2874 128.433C21.6155 128.433 23.5028 126.546 23.5028 124.217C23.5028 121.889 21.6155 120.002 19.2874 120.002H10.6157C8.28766 120.002 6.40039 121.889 6.40039 124.217C6.40039 126.546 8.28766 128.433 10.6157 128.433H19.2874ZM20.3028 124.217C20.3028 124.778 19.8482 125.233 19.2874 125.233H10.6157C10.055 125.233 9.60039 124.778 9.60039 124.217C9.60039 123.657 10.055 123.202 10.6157 123.202H19.2874C19.8482 123.202 20.3028 123.657 20.3028 124.217ZM28.4609 145.809C30.7889 145.809 32.6762 143.922 32.6762 141.594V132.922C32.6762 130.594 30.7889 128.707 28.4609 128.707C26.1328 128.707 24.2455 130.594 24.2455 132.922L24.2455 141.594C24.2455 143.922 26.1328 145.809 28.4609 145.809ZM29.4762 141.594C29.4762 142.155 29.0216 142.609 28.4609 142.609C27.9001 142.609 27.4455 142.155 27.4455 141.594V132.922C27.4455 132.362 27.9001 131.907 28.4609 131.907C29.0216 131.907 29.4762 132.362 29.4762 132.922L29.4762 141.594Z" fill="#604D18"/>
</svg>
